<?xml version="1.0" encoding="utf-8"?>
<!-- Generator: Adobe Illustrator 16.0.4, SVG Export Plug-In . SVG Version: 6.00 Build 0)  -->
<!DOCTYPE svg PUBLIC "-//W3C//DTD SVG 1.0//EN" "http://www.w3.org/TR/2001/REC-SVG-20010904/DTD/svg10.dtd">
<svg version="1.0" id="Layer_1" xmlns="http://www.w3.org/2000/svg" xmlns:xlink="http://www.w3.org/1999/xlink" x="0px" y="0px"
	 width="240px" height="120px" viewBox="0 0 240 120" enable-background="new 0 0 240 120" xml:space="preserve">
<path opacity="0.2" fill="#B7B7AD" d="M60,4c30.879,0,56,25.121,56,56s-25.121,56-56,56C29.122,116,4,90.879,4,60S29.122,4,60,4"/>
<path fill="#FFFFFF" d="M60,0C26.863,0,0,26.863,0,60c0,33.137,26.863,60,60,60c33.137,0,60-26.863,60-60C120,26.863,93.137,0,60,0z
	 M60,4c30.544,0,55.438,24.583,55.975,55H4.025C4.563,28.583,29.457,4,60,4z M60,116C29.457,116,4.563,91.418,4.025,61h111.949
	C115.438,91.418,90.544,116,60,116z"/>
<path opacity="0.2" fill="#B7B7AD" d="M236,60c0,30.879-25.121,56-56,56s-56-25.121-56-56c0-30.878,25.121-56,56-56
	S236,29.122,236,60"/>
<path fill="#FFFFFF" d="M240,60c0-33.137-26.863-60-60-60s-60,26.863-60,60c0,33.137,26.863,60,60,60S240,93.137,240,60z M236,60
	c0,30.544-24.583,55.438-55,55.975V4.025C211.417,4.563,236,29.457,236,60z M124,60c0-30.543,24.582-55.437,55-55.975v111.949
	C148.582,115.438,124,90.544,124,60z"/>
</svg>
